<svg xmlns="http://www.w3.org/2000/svg" xmlns:xlink="http://www.w3.org/1999/xlink" width="200" zoomAndPan="magnify" viewBox="0 0 150 74.999997" height="100" preserveAspectRatio="xMidYMid meet" version="1.0"><defs><g><g id="id1"/></g><clipPath id="id2"><path d="M 111 11 L 128 11 L 128 35.203125 L 111 35.203125 Z M 111 11 " clip-rule="nonzero"/></clipPath><clipPath id="id3"><path d="M 114 8 L 138.953125 8 L 138.953125 27 L 114 27 Z M 114 8 " clip-rule="nonzero"/></clipPath><clipPath id="id4"><path d="M 110.453125 5.203125 L 133 5.203125 L 133 22 L 110.453125 22 Z M 110.453125 5.203125 " clip-rule="nonzero"/></clipPath></defs><rect x="-15" width="180" fill="rgb(100%, 100%, 100%)" y="-7.5" height="89.999996" fill-opacity="1"/><rect x="-15" width="180" fill="rgb(100%, 100%, 100%)" y="-7.5" height="89.999996" fill-opacity="1"/><rect x="-15" width="180" fill="rgb(100%, 100%, 100%)" y="-7.5" height="89.999996" fill-opacity="1"/><rect x="-15" width="180" fill="rgb(100%, 100%, 100%)" y="-7.5" height="89.999996" fill-opacity="1"/><g fill="rgb(0%, 0%, 0%)" fill-opacity="1"><g transform="translate(0.641786, 50.55653)"><g><path d="M 25.4375 -6.578125 C 25.5625 -6.472656 25.660156 -6.363281 25.734375 -6.25 C 25.804688 -6.144531 25.820312 -6.007812 25.78125 -5.84375 C 25.675781 -5.59375 25.492188 -5.460938 25.234375 -5.453125 C 24.941406 -5.421875 24.640625 -5.425781 24.328125 -5.46875 C 22.929688 -5.570312 21.53125 -5.582031 20.125 -5.5 C 19.5 -5.46875 18.878906 -5.4375 18.265625 -5.40625 C 17.878906 -5.4375 17.628906 -5.382812 17.515625 -5.25 C 17.398438 -5.125 17.320312 -4.859375 17.28125 -4.453125 C 17.175781 -3.628906 17.082031 -2.78125 17 -1.90625 C 16.738281 0.457031 16.40625 2.894531 16 5.40625 C 15.601562 7.925781 15.007812 10.347656 14.21875 12.671875 C 13.425781 14.992188 12.332031 17.046875 10.9375 18.828125 C 10.03125 19.972656 8.941406 20.890625 7.671875 21.578125 C 6.367188 22.273438 4.992188 22.46875 3.546875 22.15625 C 1.921875 21.75 0.910156 20.753906 0.515625 19.171875 C 0.171875 17.566406 0.613281 16.222656 1.84375 15.140625 C 2.476562 14.554688 3.195312 14.429688 4 14.765625 C 4.1875 14.867188 4.296875 15.007812 4.328125 15.1875 C 4.359375 15.375 4.289062 15.519531 4.125 15.625 C 3.394531 16.03125 2.9375 16.566406 2.75 17.234375 C 2.5625 17.898438 2.578125 18.550781 2.796875 19.1875 C 3.023438 19.832031 3.40625 20.300781 3.9375 20.59375 C 4.476562 20.894531 5.117188 20.890625 5.859375 20.578125 C 6.710938 20.148438 7.460938 19.578125 8.109375 18.859375 C 9.597656 17.179688 10.757812 15.164062 11.59375 12.8125 C 12.425781 10.457031 13.050781 8 13.46875 5.4375 C 13.894531 2.882812 14.226562 0.425781 14.46875 -1.9375 C 14.5625 -2.6875 14.648438 -3.410156 14.734375 -4.109375 C 14.742188 -4.148438 14.75 -4.203125 14.75 -4.265625 C 14.789062 -4.453125 14.800781 -4.628906 14.78125 -4.796875 C 14.757812 -4.972656 14.675781 -5.140625 14.53125 -5.296875 C 14.457031 -5.328125 14.390625 -5.363281 14.328125 -5.40625 C 14.203125 -5.488281 14.097656 -5.570312 14.015625 -5.65625 C 13.929688 -5.738281 13.910156 -5.875 13.953125 -6.0625 C 13.972656 -6.1875 14.035156 -6.273438 14.140625 -6.328125 C 14.242188 -6.390625 14.351562 -6.457031 14.46875 -6.53125 C 14.507812 -6.539062 14.554688 -6.554688 14.609375 -6.578125 C 14.722656 -6.640625 14.804688 -6.722656 14.859375 -6.828125 C 14.910156 -6.929688 14.945312 -7.046875 14.96875 -7.171875 C 15.03125 -7.578125 15.070312 -7.992188 15.09375 -8.421875 C 15.21875 -11.097656 15.300781 -13.773438 15.34375 -16.453125 C 15.382812 -19.128906 15.316406 -21.8125 15.140625 -24.5 C 15.140625 -24.664062 15.140625 -24.820312 15.140625 -24.96875 C 15.109375 -25.75 15.046875 -26.304688 14.953125 -26.640625 C 14.859375 -26.984375 14.625 -27.179688 14.25 -27.234375 C 13.882812 -27.285156 13.285156 -27.289062 12.453125 -27.25 C 11.015625 -27.207031 9.59375 -27.332031 8.1875 -27.625 C 7.46875 -27.738281 6.828125 -28.019531 6.265625 -28.46875 C 5.472656 -29.175781 5.351562 -29.984375 5.90625 -30.890625 C 6.363281 -31.609375 7.050781 -32.15625 7.96875 -32.53125 C 8.882812 -32.90625 9.875 -33.097656 10.9375 -33.109375 C 12 -33.117188 13.007812 -32.929688 13.96875 -32.546875 C 14.925781 -32.160156 15.675781 -31.554688 16.21875 -30.734375 C 16.3125 -30.566406 16.398438 -30.398438 16.484375 -30.234375 C 16.546875 -30.128906 16.59375 -30.03125 16.625 -29.9375 C 16.769531 -29.675781 16.882812 -29.492188 16.96875 -29.390625 C 17.050781 -29.296875 17.160156 -29.242188 17.296875 -29.234375 C 17.429688 -29.222656 17.617188 -29.25 17.859375 -29.3125 C 19.191406 -29.5625 20.53125 -29.816406 21.875 -30.078125 C 22.175781 -30.140625 22.484375 -30.203125 22.796875 -30.265625 C 23.523438 -30.421875 24.285156 -30.585938 25.078125 -30.765625 C 27.316406 -31.273438 29.585938 -31.6875 31.890625 -32 C 34.203125 -32.320312 36.457031 -32.285156 38.65625 -31.890625 C 39.3125 -31.816406 39.925781 -31.613281 40.5 -31.28125 C 40.601562 -31.21875 40.6875 -31.132812 40.75 -31.03125 C 40.820312 -30.9375 40.84375 -30.828125 40.8125 -30.703125 C 40.75 -30.597656 40.671875 -30.503906 40.578125 -30.421875 C 40.492188 -30.335938 40.398438 -30.285156 40.296875 -30.265625 C 39.984375 -30.160156 39.679688 -30.140625 39.390625 -30.203125 C 37.867188 -30.660156 36.09375 -30.820312 34.0625 -30.6875 C 32.03125 -30.5625 29.929688 -30.289062 27.765625 -29.875 C 25.597656 -29.457031 23.539062 -29.023438 21.59375 -28.578125 C 20.40625 -28.285156 19.316406 -28.035156 18.328125 -27.828125 C 18.242188 -27.804688 18.171875 -27.789062 18.109375 -27.78125 C 18.066406 -27.75 18.023438 -27.734375 17.984375 -27.734375 C 17.554688 -27.660156 17.363281 -27.40625 17.40625 -26.96875 C 17.789062 -24.644531 17.972656 -22.09375 17.953125 -19.3125 C 17.929688 -16.53125 17.847656 -13.816406 17.703125 -11.171875 C 17.640625 -10.023438 17.597656 -8.9375 17.578125 -7.90625 C 17.546875 -7.4375 17.582031 -7.140625 17.6875 -7.015625 C 17.800781 -6.890625 18.078125 -6.835938 18.515625 -6.859375 C 19.492188 -6.859375 20.46875 -6.859375 21.4375 -6.859375 C 22.320312 -6.859375 23.191406 -6.847656 24.046875 -6.828125 C 24.097656 -6.828125 24.140625 -6.828125 24.171875 -6.828125 C 24.398438 -6.847656 24.613281 -6.84375 24.8125 -6.8125 C 25.019531 -6.78125 25.226562 -6.703125 25.4375 -6.578125 Z M 13.859375 -28.75 C 14.285156 -28.789062 14.40625 -29.039062 14.21875 -29.5 C 13.65625 -30.6875 12.800781 -31.394531 11.65625 -31.625 C 10.519531 -31.851562 9.445312 -31.53125 8.4375 -30.65625 C 8.15625 -30.351562 8.035156 -30.0625 8.078125 -29.78125 C 8.128906 -29.507812 8.351562 -29.289062 8.75 -29.125 C 9.28125 -28.945312 9.84375 -28.820312 10.4375 -28.75 C 11.039062 -28.6875 11.71875 -28.65625 12.46875 -28.65625 C 12.507812 -28.65625 12.570312 -28.65625 12.65625 -28.65625 C 12.96875 -28.6875 13.367188 -28.71875 13.859375 -28.75 Z M 13.859375 -28.75 "/></g></g></g><g fill="rgb(0%, 0%, 0%)" fill-opacity="1"><g transform="translate(27.459218, 50.55653)"><g><path d="M 10.1875 -7.015625 C 10.3125 -6.953125 10.367188 -6.84375 10.359375 -6.6875 C 10.347656 -6.53125 10.300781 -6.390625 10.21875 -6.265625 C 9.582031 -5.328125 8.898438 -4.492188 8.171875 -3.765625 C 7.441406 -3.035156 6.640625 -2.488281 5.765625 -2.125 C 4.898438 -1.769531 3.898438 -1.671875 2.765625 -1.828125 C 2.015625 -1.953125 1.445312 -2.207031 1.0625 -2.59375 C 0.675781 -2.988281 0.390625 -3.546875 0.203125 -4.265625 C -0.0976562 -5.398438 -0.164062 -6.5625 0 -7.75 C 0.132812 -8.445312 0.5625 -8.804688 1.28125 -8.828125 C 1.925781 -8.828125 2.28125 -8.539062 2.34375 -7.96875 C 2.351562 -7.488281 2.351562 -7.015625 2.34375 -6.546875 C 2.34375 -6.484375 2.34375 -6.425781 2.34375 -6.375 C 2.300781 -5.09375 2.503906 -4.210938 2.953125 -3.734375 C 3.410156 -3.265625 4.003906 -3.140625 4.734375 -3.359375 C 5.460938 -3.585938 6.238281 -4.101562 7.0625 -4.90625 C 7.15625 -5.007812 7.28125 -5.148438 7.4375 -5.328125 C 7.59375 -5.503906 7.765625 -5.679688 7.953125 -5.859375 C 8.210938 -6.128906 8.425781 -6.359375 8.59375 -6.546875 C 9.101562 -7.066406 9.632812 -7.222656 10.1875 -7.015625 Z M 1.109375 -10.890625 C 0.535156 -10.929688 0.207031 -11.238281 0.125 -11.8125 C 0.0625 -12.257812 0.132812 -12.691406 0.34375 -13.109375 C 0.519531 -13.460938 0.816406 -13.703125 1.234375 -13.828125 C 1.660156 -13.960938 2.0625 -13.925781 2.4375 -13.71875 C 2.570312 -13.644531 2.671875 -13.539062 2.734375 -13.40625 C 2.796875 -13.269531 2.816406 -13.160156 2.796875 -13.078125 C 2.773438 -11.597656 2.210938 -10.867188 1.109375 -10.890625 Z M 1.109375 -10.890625 "/></g></g></g><g fill="rgb(0%, 0%, 0%)" fill-opacity="1"><g transform="translate(36.039117, 50.55653)"><g><path d="M 11.890625 -6.734375 C 12.296875 -7.128906 12.632812 -7.207031 12.90625 -6.96875 C 13.1875 -6.726562 13.1875 -6.28125 12.90625 -5.625 C 12.257812 -4.375 11.4375 -3.203125 10.4375 -2.109375 C 9.4375 -1.015625 8.296875 -0.210938 7.015625 0.296875 C 6.460938 0.472656 5.90625 0.5625 5.34375 0.5625 C 4.78125 0.5625 4.222656 0.488281 3.671875 0.34375 C 3.128906 0.226562 2.675781 0 2.3125 -0.34375 C 1.957031 -0.6875 1.648438 -1.082031 1.390625 -1.53125 C 0.597656 -3.007812 0.0976562 -5.140625 -0.109375 -7.921875 C -0.328125 -10.703125 -0.347656 -13.738281 -0.171875 -17.03125 C -0.00390625 -20.332031 0.265625 -23.488281 0.640625 -26.5 C 1.015625 -29.519531 1.394531 -32.015625 1.78125 -33.984375 C 1.96875 -34.804688 2.25 -35.585938 2.625 -36.328125 C 3.03125 -37.097656 3.660156 -37.445312 4.515625 -37.375 C 5.316406 -37.375 5.875 -37 6.1875 -36.25 C 6.507812 -35.28125 6.695312 -34.289062 6.75 -33.28125 C 6.90625 -30.894531 6.835938 -28.523438 6.546875 -26.171875 C 6.265625 -23.890625 5.90625 -21.753906 5.46875 -19.765625 C 5.039062 -17.785156 4.59375 -15.84375 4.125 -13.9375 C 3.53125 -11.613281 2.96875 -9.179688 2.4375 -6.640625 C 2.457031 -6.378906 2.484375 -6.144531 2.515625 -5.9375 C 2.585938 -5.21875 2.6875 -4.597656 2.8125 -4.078125 C 2.945312 -3.554688 3.234375 -2.910156 3.671875 -2.140625 C 4.078125 -1.421875 4.59375 -1.039062 5.21875 -1 C 5.84375 -0.957031 6.484375 -1.128906 7.140625 -1.515625 C 7.804688 -1.910156 8.410156 -2.378906 8.953125 -2.921875 C 9.503906 -3.472656 9.9375 -3.972656 10.25 -4.421875 C 10.332031 -4.546875 10.488281 -4.769531 10.71875 -5.09375 C 10.945312 -5.425781 11.171875 -5.75 11.390625 -6.0625 C 11.617188 -6.382812 11.785156 -6.609375 11.890625 -6.734375 Z M 2.15625 -14.15625 C 2.414062 -14.832031 2.679688 -15.925781 2.953125 -17.4375 C 3.222656 -18.945312 3.460938 -20.625 3.671875 -22.46875 C 3.890625 -24.3125 4.054688 -26.070312 4.171875 -27.75 C 4.285156 -29.425781 4.320312 -30.765625 4.28125 -31.765625 C 4.25 -32.773438 4.125 -33.203125 3.90625 -33.046875 C 3.582031 -31.617188 3.367188 -30.300781 3.265625 -29.09375 C 3.191406 -28.457031 3.097656 -27.515625 2.984375 -26.265625 C 2.742188 -24.085938 2.519531 -21.769531 2.3125 -19.3125 C 2.101562 -16.863281 2.050781 -15.144531 2.15625 -14.15625 Z M 2.15625 -14.15625 "/></g></g></g><g fill="rgb(0%, 0%, 0%)" fill-opacity="1"><g transform="translate(47.726254, 50.55653)"><g><path d="M 2.984375 -5.46875 C 2.960938 -5.46875 2.941406 -5.46875 2.921875 -5.46875 C 2.921875 -5.46875 2.929688 -5.46875 2.953125 -5.46875 C 2.953125 -5.46875 2.960938 -5.46875 2.984375 -5.46875 Z M 12.78125 -6.890625 C 12.882812 -6.953125 13.046875 -7.023438 13.265625 -7.109375 C 13.492188 -7.203125 13.707031 -7.253906 13.90625 -7.265625 C 14.113281 -7.285156 14.257812 -7.210938 14.34375 -7.046875 C 14.414062 -6.921875 14.429688 -6.800781 14.390625 -6.6875 C 14.359375 -6.582031 14.300781 -6.484375 14.21875 -6.390625 C 13.707031 -5.835938 12.910156 -5.273438 11.828125 -4.703125 C 10.753906 -4.128906 9.640625 -3.617188 8.484375 -3.171875 C 7.328125 -2.734375 6.363281 -2.453125 5.59375 -2.328125 C 4.71875 -2.171875 3.828125 -2.132812 2.921875 -2.21875 C 1.816406 -2.351562 0.992188 -2.8125 0.453125 -3.59375 C -0.0859375 -4.375 -0.304688 -5.25 -0.203125 -6.21875 C -0.046875 -7.300781 0.441406 -8.160156 1.265625 -8.796875 C 2.097656 -9.441406 3.050781 -9.675781 4.125 -9.5 C 4.78125 -9.414062 5.375 -9.179688 5.90625 -8.796875 C 6.488281 -8.328125 6.75 -7.785156 6.6875 -7.171875 C 6.625 -6.566406 6.257812 -6.101562 5.59375 -5.78125 C 5.25 -5.613281 4.867188 -5.507812 4.453125 -5.46875 C 4.035156 -5.425781 3.546875 -5.425781 2.984375 -5.46875 C 2.984375 -5.46875 2.96875 -5.46875 2.9375 -5.46875 C 2.90625 -5.46875 2.859375 -5.46875 2.796875 -5.46875 C 2.742188 -5.46875 2.6875 -5.46875 2.625 -5.46875 C 2.445312 -5.46875 2.332031 -5.421875 2.28125 -5.328125 C 2.238281 -5.234375 2.238281 -5.117188 2.28125 -4.984375 C 2.59375 -4.222656 3.195312 -3.816406 4.09375 -3.765625 C 5 -3.722656 6.019531 -3.894531 7.15625 -4.28125 C 8.300781 -4.664062 9.382812 -5.109375 10.40625 -5.609375 C 11.4375 -6.117188 12.226562 -6.546875 12.78125 -6.890625 Z M 2.953125 -7.78125 C 2.816406 -7.675781 2.722656 -7.554688 2.671875 -7.421875 C 2.617188 -7.285156 2.585938 -7.171875 2.578125 -7.078125 C 2.566406 -6.984375 2.582031 -6.929688 2.625 -6.921875 C 2.65625 -6.898438 2.769531 -6.875 2.96875 -6.84375 C 3.164062 -6.8125 3.378906 -6.804688 3.609375 -6.828125 C 3.847656 -6.847656 4.046875 -6.894531 4.203125 -6.96875 C 4.359375 -7.050781 4.414062 -7.195312 4.375 -7.40625 C 4.269531 -7.695312 4.066406 -7.878906 3.765625 -7.953125 C 3.472656 -8.023438 3.203125 -7.96875 2.953125 -7.78125 Z M 2.953125 -7.78125 "/></g></g></g><g fill="rgb(0%, 0%, 0%)" fill-opacity="1"><g transform="translate(60.659087, 50.55653)"><g/></g></g><g fill="rgb(0%, 0%, 0%)" fill-opacity="1"><g transform="translate(71.730375, 50.55653)"><g><path d="M 13.015625 8.609375 C 13.492188 8.628906 13.96875 8.613281 14.4375 8.5625 C 14.90625 8.507812 15.359375 8.390625 15.796875 8.203125 C 17.085938 7.585938 17.53125 6.613281 17.125 5.28125 C 16.894531 4.59375 16.546875 3.96875 16.078125 3.40625 C 15.523438 2.707031 14.914062 2.054688 14.25 1.453125 C 13.59375 0.859375 12.914062 0.285156 12.21875 -0.265625 C 11.832031 -0.554688 11.460938 -0.546875 11.109375 -0.234375 C 10.035156 0.566406 9.070312 1.460938 8.21875 2.453125 C 7.84375 2.898438 7.523438 3.390625 7.265625 3.921875 C 6.703125 5.234375 6.976562 6.34375 8.09375 7.25 C 8.625 7.664062 9.210938 7.960938 9.859375 8.140625 C 10.878906 8.453125 11.929688 8.609375 13.015625 8.609375 Z M 13.65625 -2.015625 C 13.707031 -1.835938 13.785156 -1.691406 13.890625 -1.578125 C 14.003906 -1.460938 14.125 -1.363281 14.25 -1.28125 C 14.332031 -1.21875 14.414062 -1.15625 14.5 -1.09375 C 14.832031 -0.8125 15.160156 -0.515625 15.484375 -0.203125 C 16.097656 0.335938 16.695312 0.875 17.28125 1.40625 C 18.113281 2.175781 18.789062 3.078125 19.3125 4.109375 C 19.820312 5.128906 19.953125 6.125 19.703125 7.09375 C 19.453125 8.0625 18.695312 8.832031 17.4375 9.40625 C 16.894531 9.644531 16.328125 9.804688 15.734375 9.890625 C 14.585938 10.035156 13.429688 10.09375 12.265625 10.0625 C 11.109375 10.039062 9.960938 9.875 8.828125 9.5625 C 8.285156 9.414062 7.753906 9.21875 7.234375 8.96875 C 6.722656 8.726562 6.265625 8.410156 5.859375 8.015625 C 4.390625 6.679688 4.078125 5.117188 4.921875 3.328125 C 5.273438 2.640625 5.71875 2.003906 6.25 1.421875 C 7.113281 0.515625 8.035156 -0.320312 9.015625 -1.09375 C 9.515625 -1.488281 9.757812 -1.773438 9.75 -1.953125 C 9.738281 -2.128906 9.453125 -2.378906 8.890625 -2.703125 C 7.890625 -3.367188 6.878906 -4.035156 5.859375 -4.703125 C 5.316406 -5.046875 4.773438 -5.394531 4.234375 -5.75 C 3.910156 -5.976562 3.585938 -6.191406 3.265625 -6.390625 C 2.441406 -6.910156 1.628906 -7.453125 0.828125 -8.015625 C -0.078125 -8.660156 -0.921875 -9.359375 -1.703125 -10.109375 C -2.492188 -10.867188 -3.191406 -11.726562 -3.796875 -12.6875 C -5.023438 -14.675781 -5.476562 -16.703125 -5.15625 -18.765625 C -4.84375 -20.835938 -3.941406 -22.835938 -2.453125 -24.765625 C -0.960938 -26.691406 0.90625 -28.421875 3.15625 -29.953125 C 5.414062 -31.492188 7.863281 -32.738281 10.5 -33.6875 C 13.144531 -34.644531 15.773438 -35.195312 18.390625 -35.34375 C 21.015625 -35.488281 23.421875 -35.117188 25.609375 -34.234375 C 27.804688 -33.347656 29.613281 -31.832031 31.03125 -29.6875 C 31.289062 -29.289062 31.503906 -28.875 31.671875 -28.4375 C 31.847656 -28 31.9375 -27.53125 31.9375 -27.03125 C 31.9375 -26.539062 31.710938 -26.234375 31.265625 -26.109375 C 30.953125 -26.023438 30.664062 -26.03125 30.40625 -26.125 C 30.15625 -26.21875 29.960938 -26.367188 29.828125 -26.578125 C 29.816406 -26.628906 29.800781 -26.695312 29.78125 -26.78125 C 29.757812 -26.832031 29.75 -26.875 29.75 -26.90625 C 28.800781 -29.507812 27.40625 -31.363281 25.5625 -32.46875 C 23.71875 -33.582031 21.628906 -34.101562 19.296875 -34.03125 C 16.960938 -33.96875 14.578125 -33.460938 12.140625 -32.515625 C 9.710938 -31.566406 7.429688 -30.359375 5.296875 -28.890625 C 3.160156 -27.429688 1.367188 -25.859375 -0.078125 -24.171875 C -1.523438 -22.484375 -2.421875 -20.847656 -2.765625 -19.265625 C -3.117188 -17.296875 -2.785156 -15.472656 -1.765625 -13.796875 C -0.941406 -12.367188 0.109375 -11.15625 1.390625 -10.15625 C 2.367188 -9.375 3.367188 -8.632812 4.390625 -7.9375 C 5.316406 -7.34375 6.234375 -6.753906 7.140625 -6.171875 C 8.390625 -5.378906 9.625 -4.570312 10.84375 -3.75 C 11.1875 -3.5 11.503906 -3.382812 11.796875 -3.40625 C 12.097656 -3.425781 12.410156 -3.550781 12.734375 -3.78125 C 14.359375 -4.757812 15.960938 -5.660156 17.546875 -6.484375 C 19.128906 -7.304688 20.003906 -7.53125 20.171875 -7.15625 C 20.347656 -6.789062 20.101562 -6.359375 19.4375 -5.859375 C 17.84375 -5.023438 16.320312 -4.082031 14.875 -3.03125 C 14.78125 -3 14.695312 -2.953125 14.625 -2.890625 C 14.238281 -2.679688 13.914062 -2.390625 13.65625 -2.015625 Z M 13.65625 -2.015625 "/></g></g></g><g fill="rgb(0%, 0%, 0%)" fill-opacity="1"><g transform="translate(89.79995, 50.55653)"><g><path d="M 17.03125 -6.9375 C 17.175781 -6.90625 17.273438 -6.8125 17.328125 -6.65625 C 17.378906 -6.5 17.332031 -6.320312 17.1875 -6.125 C 16.78125 -5.570312 16.171875 -5 15.359375 -4.40625 C 14.546875 -3.820312 13.660156 -3.332031 12.703125 -2.9375 C 11.742188 -2.550781 10.820312 -2.394531 9.9375 -2.46875 C 9.0625 -2.539062 8.347656 -2.953125 7.796875 -3.703125 C 7.671875 -3.890625 7.546875 -4.078125 7.421875 -4.265625 C 7.191406 -4.710938 6.894531 -5.125 6.53125 -5.5 C 6.082031 -5.914062 5.671875 -5.914062 5.296875 -5.5 C 4.578125 -4.71875 4 -3.847656 3.5625 -2.890625 C 3.363281 -2.410156 3.160156 -1.9375 2.953125 -1.46875 C 2.816406 -1.113281 2.671875 -0.773438 2.515625 -0.453125 C 2.148438 0.472656 1.507812 0.789062 0.59375 0.5 C 0.132812 0.332031 -0.125 0.0234375 -0.1875 -0.421875 C -0.195312 -0.585938 -0.195312 -0.757812 -0.1875 -0.9375 C -0.1875 -1 -0.1875 -1.066406 -0.1875 -1.140625 C -0.125 -2.898438 -0.0625 -4.660156 0 -6.421875 C 0.125 -10.597656 0.269531 -14.765625 0.4375 -18.921875 C 0.46875 -19.828125 0.492188 -20.734375 0.515625 -21.640625 C 0.578125 -23.421875 0.660156 -25.195312 0.765625 -26.96875 C 0.867188 -28.738281 1.023438 -30.503906 1.234375 -32.265625 C 1.335938 -32.960938 1.5 -33.648438 1.71875 -34.328125 C 1.945312 -34.890625 2.328125 -35.28125 2.859375 -35.5 C 3.398438 -35.726562 3.960938 -35.773438 4.546875 -35.640625 C 5.128906 -35.503906 5.613281 -35.175781 6 -34.65625 C 6.601562 -33.800781 6.945312 -32.851562 7.03125 -31.8125 C 7.351562 -28.539062 7.320312 -25.421875 6.9375 -22.453125 C 6.5625 -19.484375 5.898438 -16.441406 4.953125 -13.328125 C 4.398438 -11.484375 3.878906 -9.867188 3.390625 -8.484375 C 3.222656 -8.035156 3.078125 -7.640625 2.953125 -7.296875 C 2.742188 -6.679688 2.640625 -6.296875 2.640625 -6.140625 C 2.640625 -5.984375 2.722656 -5.984375 2.890625 -6.140625 C 3.898438 -7.210938 4.941406 -7.726562 6.015625 -7.6875 C 7.097656 -7.644531 8.140625 -7.007812 9.140625 -5.78125 C 9.222656 -5.65625 9.304688 -5.53125 9.390625 -5.40625 C 9.640625 -5.070312 9.875 -4.800781 10.09375 -4.59375 C 10.3125 -4.394531 10.550781 -4.273438 10.8125 -4.234375 C 11.488281 -4.140625 12.210938 -4.3125 12.984375 -4.75 C 13.753906 -5.1875 14.519531 -5.703125 15.28125 -6.296875 C 16.0625 -6.910156 16.644531 -7.125 17.03125 -6.9375 Z M 4.46875 -32.296875 C 4.40625 -32.722656 4.335938 -32.960938 4.265625 -33.015625 C 4.191406 -33.066406 4.117188 -33.007812 4.046875 -32.84375 C 3.984375 -32.6875 3.925781 -32.472656 3.875 -32.203125 C 3.820312 -31.941406 3.78125 -31.695312 3.75 -31.46875 C 3.71875 -31.238281 3.691406 -31.09375 3.671875 -31.03125 C 3.566406 -29.65625 3.457031 -27.898438 3.34375 -25.765625 C 3.226562 -23.628906 3.125 -21.515625 3.03125 -19.421875 C 2.9375 -17.722656 2.859375 -16.273438 2.796875 -15.078125 C 2.742188 -13.890625 2.691406 -13.171875 2.640625 -12.921875 C 3.304688 -14.734375 3.800781 -16.90625 4.125 -19.4375 C 4.457031 -21.96875 4.644531 -24.414062 4.6875 -26.78125 C 4.726562 -29.144531 4.65625 -30.984375 4.46875 -32.296875 Z M 4.46875 -32.296875 "/></g></g></g><g fill="rgb(0%, 0%, 0%)" fill-opacity="1"><g transform="translate(105.56009, 50.55653)"><g><path d="M 12.828125 -7.046875 C 12.929688 -7.023438 13 -6.992188 13.03125 -6.953125 C 13.070312 -6.910156 13.113281 -6.828125 13.15625 -6.703125 C 13.195312 -6.585938 13.15625 -6.441406 13.03125 -6.265625 C 12.914062 -6.097656 12.804688 -5.960938 12.703125 -5.859375 C 11.929688 -5.140625 11.035156 -4.710938 10.015625 -4.578125 C 9.421875 -4.492188 8.828125 -4.472656 8.234375 -4.515625 C 7.648438 -4.554688 7.078125 -4.695312 6.515625 -4.9375 C 6.097656 -5.144531 5.710938 -5.085938 5.359375 -4.765625 C 4.617188 -4.085938 3.847656 -3.441406 3.046875 -2.828125 C 2.640625 -2.515625 2.207031 -2.253906 1.75 -2.046875 C 1.300781 -1.847656 0.8125 -1.734375 0.28125 -1.703125 C -1.28125 -1.734375 -1.894531 -2.492188 -1.5625 -3.984375 C -1.550781 -4.054688 -1.53125 -4.109375 -1.5 -4.140625 C -1.050781 -5.359375 -0.457031 -6.453125 0.28125 -7.421875 C 1.019531 -8.398438 1.953125 -9.21875 3.078125 -9.875 C 3.828125 -10.3125 4.628906 -10.476562 5.484375 -10.375 C 5.710938 -10.320312 5.925781 -10.238281 6.125 -10.125 C 6.382812 -10 6.488281 -9.800781 6.4375 -9.53125 C 6.414062 -9.445312 6.375 -9.375 6.3125 -9.3125 C 6.257812 -9.25 6.195312 -9.191406 6.125 -9.140625 C 6.09375 -9.097656 6.046875 -9.066406 5.984375 -9.046875 C 5.921875 -9.023438 5.859375 -9.015625 5.796875 -9.015625 C 5.179688 -8.992188 4.648438 -8.8125 4.203125 -8.46875 C 3.765625 -8.132812 3.363281 -7.753906 3 -7.328125 C 2.582031 -6.867188 2.195312 -6.363281 1.84375 -5.8125 C 1.5 -5.257812 1.21875 -4.601562 1 -3.84375 C 1.8125 -4.3125 2.453125 -4.78125 2.921875 -5.25 C 3.023438 -5.351562 3.128906 -5.445312 3.234375 -5.53125 C 3.316406 -5.613281 3.398438 -5.6875 3.484375 -5.75 C 3.898438 -6.132812 4.332031 -6.472656 4.78125 -6.765625 C 5.289062 -7.054688 5.796875 -7.203125 6.296875 -7.203125 C 6.804688 -7.203125 7.296875 -6.992188 7.765625 -6.578125 C 8.421875 -6.003906 9.054688 -5.78125 9.671875 -5.90625 C 10.285156 -6.03125 10.859375 -6.242188 11.390625 -6.546875 C 11.929688 -6.878906 12.410156 -7.046875 12.828125 -7.046875 Z M 12.828125 -7.046875 "/></g></g></g><g fill="rgb(0%, 0%, 0%)" fill-opacity="1"><g transform="translate(117.415187, 50.55653)"><g><path d="M 12.453125 -6.609375 C 12.796875 -6.960938 13.097656 -7.101562 13.359375 -7.03125 C 13.628906 -6.957031 13.796875 -6.757812 13.859375 -6.4375 C 13.921875 -6.125 13.828125 -5.769531 13.578125 -5.375 C 13.066406 -4.613281 12.34375 -3.796875 11.40625 -2.921875 C 10.476562 -2.054688 9.472656 -1.296875 8.390625 -0.640625 C 7.316406 0.00390625 6.296875 0.351562 5.328125 0.40625 C 3.378906 0.507812 2.46875 -0.421875 2.59375 -2.390625 C 2.613281 -2.648438 2.664062 -3 2.75 -3.4375 C 2.832031 -3.875 2.898438 -4.289062 2.953125 -4.6875 C 3.003906 -5.09375 2.976562 -5.363281 2.875 -5.5 C 2.738281 -5.625 2.585938 -5.6875 2.421875 -5.6875 C 2.265625 -5.6875 2.09375 -5.664062 1.90625 -5.625 C 1.695312 -5.582031 1.503906 -5.570312 1.328125 -5.59375 C 0.378906 -5.695312 -0.113281 -6.1875 -0.15625 -7.0625 C -0.175781 -8.28125 0.046875 -9.445312 0.515625 -10.5625 C 0.660156 -10.90625 0.9375 -11.128906 1.34375 -11.234375 C 1.757812 -11.347656 2.140625 -11.304688 2.484375 -11.109375 C 2.710938 -10.960938 2.816406 -10.769531 2.796875 -10.53125 C 2.765625 -10.195312 2.707031 -9.863281 2.625 -9.53125 C 2.582031 -9.394531 2.546875 -9.25 2.515625 -9.09375 C 2.335938 -8.238281 2.335938 -7.796875 2.515625 -7.765625 C 2.703125 -7.734375 3.101562 -7.960938 3.71875 -8.453125 C 4.175781 -8.785156 4.679688 -8.921875 5.234375 -8.859375 C 5.972656 -8.796875 6.269531 -8.382812 6.125 -7.625 C 6.007812 -7.113281 5.882812 -6.59375 5.75 -6.0625 C 5.46875 -4.96875 5.253906 -3.867188 5.109375 -2.765625 C 5.054688 -2.003906 5.191406 -1.5625 5.515625 -1.4375 C 5.835938 -1.3125 6.269531 -1.390625 6.8125 -1.671875 C 7.363281 -1.953125 7.941406 -2.328125 8.546875 -2.796875 C 9.148438 -3.265625 9.679688 -3.722656 10.140625 -4.171875 C 10.609375 -4.628906 10.925781 -4.960938 11.09375 -5.171875 C 11.175781 -5.265625 11.300781 -5.398438 11.46875 -5.578125 C 11.644531 -5.765625 11.828125 -5.953125 12.015625 -6.140625 C 12.210938 -6.347656 12.359375 -6.503906 12.453125 -6.609375 Z M 12.453125 -6.609375 "/></g></g></g><g fill="rgb(0%, 0%, 0%)" fill-opacity="1"><g transform="translate(129.494228, 50.55653)"><g><path d="M 2.984375 -5.46875 C 2.960938 -5.46875 2.941406 -5.46875 2.921875 -5.46875 C 2.921875 -5.46875 2.929688 -5.46875 2.953125 -5.46875 C 2.953125 -5.46875 2.960938 -5.46875 2.984375 -5.46875 Z M 12.78125 -6.890625 C 12.882812 -6.953125 13.046875 -7.023438 13.265625 -7.109375 C 13.492188 -7.203125 13.707031 -7.253906 13.90625 -7.265625 C 14.113281 -7.285156 14.257812 -7.210938 14.34375 -7.046875 C 14.414062 -6.921875 14.429688 -6.800781 14.390625 -6.6875 C 14.359375 -6.582031 14.300781 -6.484375 14.21875 -6.390625 C 13.707031 -5.835938 12.910156 -5.273438 11.828125 -4.703125 C 10.753906 -4.128906 9.640625 -3.617188 8.484375 -3.171875 C 7.328125 -2.734375 6.363281 -2.453125 5.59375 -2.328125 C 4.71875 -2.171875 3.828125 -2.132812 2.921875 -2.21875 C 1.816406 -2.351562 0.992188 -2.8125 0.453125 -3.59375 C -0.0859375 -4.375 -0.304688 -5.25 -0.203125 -6.21875 C -0.046875 -7.300781 0.441406 -8.160156 1.265625 -8.796875 C 2.097656 -9.441406 3.050781 -9.675781 4.125 -9.5 C 4.78125 -9.414062 5.375 -9.179688 5.90625 -8.796875 C 6.488281 -8.328125 6.75 -7.785156 6.6875 -7.171875 C 6.625 -6.566406 6.257812 -6.101562 5.59375 -5.78125 C 5.25 -5.613281 4.867188 -5.507812 4.453125 -5.46875 C 4.035156 -5.425781 3.546875 -5.425781 2.984375 -5.46875 C 2.984375 -5.46875 2.96875 -5.46875 2.9375 -5.46875 C 2.90625 -5.46875 2.859375 -5.46875 2.796875 -5.46875 C 2.742188 -5.46875 2.6875 -5.46875 2.625 -5.46875 C 2.445312 -5.46875 2.332031 -5.421875 2.28125 -5.328125 C 2.238281 -5.234375 2.238281 -5.117188 2.28125 -4.984375 C 2.59375 -4.222656 3.195312 -3.816406 4.09375 -3.765625 C 5 -3.722656 6.019531 -3.894531 7.15625 -4.28125 C 8.300781 -4.664062 9.382812 -5.109375 10.40625 -5.609375 C 11.4375 -6.117188 12.226562 -6.546875 12.78125 -6.890625 Z M 2.953125 -7.78125 C 2.816406 -7.675781 2.722656 -7.554688 2.671875 -7.421875 C 2.617188 -7.285156 2.585938 -7.171875 2.578125 -7.078125 C 2.566406 -6.984375 2.582031 -6.929688 2.625 -6.921875 C 2.65625 -6.898438 2.769531 -6.875 2.96875 -6.84375 C 3.164062 -6.8125 3.378906 -6.804688 3.609375 -6.828125 C 3.847656 -6.847656 4.046875 -6.894531 4.203125 -6.96875 C 4.359375 -7.050781 4.414062 -7.195312 4.375 -7.40625 C 4.269531 -7.695312 4.066406 -7.878906 3.765625 -7.953125 C 3.472656 -8.023438 3.203125 -7.96875 2.953125 -7.78125 Z M 2.953125 -7.78125 "/></g></g></g><path fill="rgb(0%, 29.019165%, 67.83905%)" d="M 123.285156 28.683594 C 123.328125 28.683594 123.378906 28.675781 123.421875 28.65625 C 123.613281 28.578125 123.707031 28.363281 123.628906 28.171875 L 121.015625 21.710938 C 120.9375 21.519531 120.722656 21.425781 120.53125 21.503906 C 120.339844 21.582031 120.246094 21.796875 120.324219 21.988281 L 122.9375 28.449219 C 122.996094 28.597656 123.136719 28.683594 123.285156 28.683594 " fill-opacity="1" fill-rule="nonzero"/><g clip-path="url(#id2)"><path fill="rgb(0%, 29.019165%, 67.83905%)" d="M 121.683594 31.125 C 121.578125 31.410156 121.585938 31.722656 121.710938 32 L 122.050781 32.742188 C 122.175781 33.019531 122.402344 33.230469 122.6875 33.335938 C 122.945312 33.433594 123.226562 33.433594 123.484375 33.339844 L 123.875 34.207031 C 124.15625 34.828125 124.777344 35.199219 125.425781 35.199219 C 125.648438 35.199219 125.871094 35.15625 126.085938 35.0625 C 126.917969 34.707031 127.320312 33.765625 127.003906 32.917969 L 122.839844 21.824219 C 122.765625 21.632812 122.550781 21.535156 122.359375 21.605469 C 122.167969 21.675781 122.070312 21.890625 122.140625 22.082031 L 126.304688 33.179688 C 126.484375 33.652344 126.257812 34.179688 125.792969 34.382812 C 125.320312 34.582031 124.765625 34.367188 124.554688 33.902344 L 124.011719 32.699219 C 123.96875 32.609375 123.894531 32.539062 123.800781 32.503906 C 123.710938 32.46875 123.605469 32.472656 123.515625 32.511719 L 123.253906 32.632812 C 123.15625 32.675781 123.050781 32.679688 122.949219 32.640625 C 122.851562 32.605469 122.773438 32.53125 122.726562 32.433594 L 122.390625 31.691406 C 122.347656 31.59375 122.34375 31.488281 122.382812 31.386719 C 122.417969 31.289062 122.492188 31.210938 122.589844 31.167969 L 122.855469 31.046875 C 123.042969 30.960938 123.125 30.742188 123.042969 30.554688 L 122.222656 28.746094 C 122.183594 28.65625 122.109375 28.585938 122.015625 28.550781 C 121.921875 28.515625 121.820312 28.519531 121.730469 28.558594 L 121.460938 28.679688 C 121.261719 28.773438 121.023438 28.683594 120.933594 28.484375 L 120.597656 27.742188 C 120.554688 27.644531 120.550781 27.539062 120.585938 27.4375 C 120.625 27.339844 120.699219 27.261719 120.792969 27.21875 L 121.070312 27.09375 C 121.257812 27.007812 121.339844 26.789062 121.253906 26.601562 L 120.578125 25.101562 C 120.496094 24.917969 120.285156 24.835938 120.101562 24.90625 L 119.714844 25.058594 C 119.511719 25.140625 119.277344 25.039062 119.199219 24.835938 L 118.898438 24.078125 C 118.859375 23.980469 118.863281 23.871094 118.902344 23.773438 C 118.945312 23.679688 119.023438 23.601562 119.121094 23.5625 L 119.402344 23.453125 C 119.5 23.414062 119.574219 23.339844 119.613281 23.246094 C 119.652344 23.152344 119.648438 23.046875 119.605469 22.953125 L 119.246094 22.160156 C 119.179688 22.011719 119.027344 21.925781 118.867188 21.945312 C 117.492188 22.097656 116.105469 21.753906 114.964844 20.976562 C 113.683594 20.109375 112.824219 18.792969 112.535156 17.277344 C 112.246094 15.757812 112.566406 14.21875 113.4375 12.945312 C 113.703125 12.554688 114.015625 12.199219 114.367188 11.886719 C 114.519531 11.75 114.535156 11.511719 114.398438 11.359375 C 114.257812 11.207031 114.023438 11.195312 113.871094 11.332031 C 113.476562 11.683594 113.125 12.085938 112.824219 12.527344 C 110.792969 15.5 111.566406 19.566406 114.542969 21.59375 C 115.757812 22.417969 117.21875 22.808594 118.679688 22.707031 L 118.769531 22.90625 C 118.523438 23.027344 118.332031 23.226562 118.222656 23.480469 C 118.097656 23.757812 118.09375 24.066406 118.207031 24.351562 L 118.507812 25.109375 C 118.738281 25.695312 119.402344 25.980469 119.988281 25.75 L 120.042969 25.730469 L 120.425781 26.570312 C 120.175781 26.699219 119.988281 26.914062 119.890625 27.175781 C 119.78125 27.460938 119.792969 27.773438 119.917969 28.050781 L 120.253906 28.792969 C 120.382812 29.070312 120.609375 29.28125 120.894531 29.386719 C 121.15625 29.484375 121.4375 29.484375 121.699219 29.386719 L 122.210938 30.523438 C 121.96875 30.65625 121.78125 30.867188 121.683594 31.125 " fill-opacity="1" fill-rule="nonzero"/></g><g clip-path="url(#id3)"><path fill="rgb(0%, 29.019165%, 67.83905%)" d="M 128.199219 16.574219 C 128.078125 16.742188 128.121094 16.972656 128.289062 17.089844 L 137.585938 23.636719 C 138 23.929688 138.113281 24.492188 137.839844 24.917969 C 137.566406 25.351562 136.984375 25.488281 136.546875 25.21875 L 135.417969 24.53125 C 135.332031 24.476562 135.230469 24.460938 135.136719 24.484375 C 135.039062 24.507812 134.957031 24.570312 134.90625 24.652344 L 134.753906 24.902344 C 134.699219 24.992188 134.613281 25.054688 134.507812 25.078125 C 134.40625 25.105469 134.300781 25.085938 134.210938 25.03125 L 133.511719 24.609375 C 133.421875 24.554688 133.355469 24.464844 133.332031 24.363281 C 133.308594 24.261719 133.324219 24.15625 133.378906 24.0625 L 133.53125 23.8125 C 133.636719 23.636719 133.582031 23.410156 133.410156 23.304688 L 131.710938 22.265625 C 131.628906 22.214844 131.523438 22.199219 131.429688 22.222656 C 131.332031 22.246094 131.25 22.304688 131.199219 22.390625 L 131.042969 22.644531 C 130.988281 22.734375 130.902344 22.796875 130.800781 22.824219 C 130.695312 22.847656 130.589844 22.832031 130.5 22.777344 L 129.800781 22.351562 C 129.613281 22.238281 129.554688 21.996094 129.667969 21.808594 L 129.824219 21.550781 C 129.933594 21.375 129.878906 21.148438 129.703125 21.039062 L 128.296875 20.179688 C 128.125 20.078125 127.90625 20.125 127.792969 20.289062 L 127.558594 20.632812 C 127.4375 20.8125 127.1875 20.859375 127.007812 20.738281 L 126.332031 20.28125 C 126.152344 20.15625 126.105469 19.910156 126.226562 19.730469 L 126.398438 19.480469 C 126.453125 19.394531 126.476562 19.292969 126.453125 19.191406 C 126.433594 19.09375 126.371094 19.007812 126.285156 18.953125 L 125.539062 18.5 C 125.402344 18.414062 125.222656 18.429688 125.101562 18.535156 C 124.050781 19.433594 122.714844 19.929688 121.332031 19.929688 C 118.136719 19.929688 115.539062 17.335938 115.539062 14.148438 C 115.539062 12.160156 116.546875 10.335938 118.230469 9.265625 C 118.402344 9.15625 118.453125 8.925781 118.34375 8.753906 C 118.234375 8.578125 118.003906 8.527344 117.828125 8.636719 C 115.929688 9.84375 114.796875 11.902344 114.796875 14.148438 C 114.796875 17.746094 117.726562 20.671875 121.332031 20.671875 C 122.800781 20.671875 124.226562 20.175781 125.375 19.269531 L 125.5625 19.386719 C 125.429688 19.621094 125.382812 19.894531 125.433594 20.164062 C 125.492188 20.464844 125.660156 20.722656 125.914062 20.894531 L 126.589844 21.351562 C 127.109375 21.707031 127.820312 21.570312 128.175781 21.050781 L 128.210938 21 L 129 21.480469 C 128.71875 22.011719 128.894531 22.671875 129.414062 22.988281 L 130.113281 23.414062 C 130.371094 23.570312 130.679688 23.617188 130.976562 23.546875 C 131.246094 23.480469 131.480469 23.320312 131.640625 23.09375 L 132.703125 23.746094 C 132.578125 23.988281 132.542969 24.269531 132.609375 24.539062 C 132.679688 24.835938 132.863281 25.085938 133.125 25.242188 L 133.820312 25.667969 C 134.082031 25.824219 134.390625 25.875 134.683594 25.800781 C 134.953125 25.738281 135.183594 25.578125 135.34375 25.355469 L 136.15625 25.851562 C 136.429688 26.019531 136.734375 26.097656 137.035156 26.097656 C 137.597656 26.097656 138.148438 25.820312 138.46875 25.316406 C 138.953125 24.554688 138.753906 23.550781 138.015625 23.03125 L 128.71875 16.484375 C 128.546875 16.363281 128.316406 16.40625 128.199219 16.574219 " fill-opacity="1" fill-rule="nonzero"/></g><g clip-path="url(#id4)"><path fill="rgb(0%, 29.019165%, 67.83905%)" d="M 111.953125 13.035156 C 112.117188 12.914062 112.148438 12.679688 112.027344 12.515625 C 111.484375 11.800781 111.195312 10.945312 111.195312 10.046875 C 111.195312 7.785156 113.039062 5.945312 115.304688 5.945312 C 117.566406 5.945312 119.410156 7.785156 119.410156 10.046875 C 119.410156 10.253906 119.394531 10.460938 119.363281 10.664062 C 117.941406 10.683594 116.789062 11.84375 116.789062 13.265625 C 116.789062 14.703125 117.960938 15.871094 119.398438 15.871094 C 120.839844 15.871094 122.007812 14.703125 122.007812 13.265625 C 122.007812 12.558594 121.730469 11.898438 121.222656 11.402344 C 121.074219 11.257812 120.839844 11.261719 120.695312 11.410156 C 120.550781 11.554688 120.554688 11.792969 120.703125 11.933594 C 121.066406 12.289062 121.265625 12.761719 121.265625 13.265625 C 121.265625 14.292969 120.429688 15.128906 119.398438 15.128906 C 118.371094 15.128906 117.535156 14.292969 117.535156 13.265625 C 117.535156 12.316406 118.25 11.53125 119.171875 11.421875 C 118.988281 11.9375 118.703125 12.414062 118.324219 12.824219 C 118.183594 12.972656 118.195312 13.210938 118.34375 13.347656 C 118.417969 13.414062 118.507812 13.449219 118.597656 13.449219 C 118.699219 13.449219 118.796875 13.40625 118.871094 13.328125 C 119.699219 12.429688 120.15625 11.265625 120.15625 10.046875 C 120.15625 9.519531 120.070312 9.015625 119.914062 8.542969 C 120.375 8.425781 120.851562 8.367188 121.332031 8.367188 C 124.523438 8.367188 127.121094 10.960938 127.121094 14.148438 C 127.121094 14.703125 127.042969 15.257812 126.882812 15.792969 C 126.882812 15.792969 126.882812 15.796875 126.882812 15.796875 C 126.730469 16.304688 126.511719 16.792969 126.222656 17.242188 C 126.117188 17.414062 126.164062 17.636719 126.332031 17.75 L 132.136719 21.625 C 132.199219 21.664062 132.273438 21.6875 132.34375 21.6875 C 132.464844 21.6875 132.582031 21.628906 132.652344 21.519531 C 132.765625 21.351562 132.722656 21.117188 132.550781 21.003906 L 127.039062 17.328125 C 127.292969 16.875 127.492188 16.390625 127.632812 15.886719 C 127.632812 15.878906 127.632812 15.871094 127.636719 15.863281 C 127.789062 15.300781 127.867188 14.726562 127.867188 14.148438 C 127.867188 10.550781 124.933594 7.625 121.332031 7.625 C 120.75 7.625 120.179688 7.699219 119.625 7.847656 C 118.820312 6.28125 117.1875 5.203125 115.304688 5.203125 C 112.628906 5.203125 110.453125 7.375 110.453125 10.046875 C 110.453125 11.109375 110.792969 12.117188 111.429688 12.964844 C 111.554688 13.128906 111.789062 13.160156 111.953125 13.035156 " fill-opacity="1" fill-rule="nonzero"/></g></svg>