<svg xmlns="http://www.w3.org/2000/svg" xmlns:xlink="http://www.w3.org/1999/xlink" width="200" zoomAndPan="magnify" viewBox="0 0 150 74.999997" height="100" preserveAspectRatio="xMidYMid meet" version="1.0"><defs><g><g id="id1"/></g></defs><g fill="rgb(0%, 0%, 0%)" fill-opacity="1"><g transform="translate(1.105638, 40.451209)"><g><path d="M 8.484375 -10.84375 C 8.671875 -10.78125 8.816406 -10.691406 8.921875 -10.578125 C 9.035156 -10.460938 9.078125 -10.300781 9.046875 -10.09375 C 8.960938 -9.625 8.84375 -9.164062 8.6875 -8.71875 C 8.414062 -7.78125 8.0625 -6.867188 7.625 -5.984375 C 7.195312 -5.109375 6.640625 -4.289062 5.953125 -3.53125 C 5.742188 -3.300781 5.523438 -3.085938 5.296875 -2.890625 C 5.078125 -2.691406 4.816406 -2.546875 4.515625 -2.453125 C 3.804688 -2.234375 3.132812 -2.207031 2.5 -2.375 C 1.863281 -2.539062 1.34375 -3.046875 0.9375 -3.890625 C 0.21875 -5.515625 -0.222656 -7.21875 -0.390625 -9 C -0.441406 -9.632812 -0.234375 -10.007812 0.234375 -10.125 C 0.640625 -10.25 1.015625 -10.257812 1.359375 -10.15625 C 1.703125 -10.0625 1.929688 -9.878906 2.046875 -9.609375 C 2.234375 -9.117188 2.375 -8.609375 2.46875 -8.078125 C 2.507812 -7.941406 2.546875 -7.804688 2.578125 -7.671875 C 2.617188 -7.429688 2.660156 -7.207031 2.703125 -7 C 2.847656 -6.382812 2.992188 -5.875 3.140625 -5.46875 C 3.296875 -5.070312 3.515625 -4.914062 3.796875 -5 C 4.078125 -5.082031 4.457031 -5.535156 4.9375 -6.359375 C 5.613281 -7.523438 6.1875 -8.753906 6.65625 -10.046875 C 7.007812 -10.847656 7.617188 -11.113281 8.484375 -10.84375 Z M 8.484375 -10.84375 "/></g></g><g transform="translate(10.693562, 40.451209)"><g><path d="M 14.890625 9.84375 C 15.429688 9.863281 15.96875 9.84375 16.5 9.78125 C 17.039062 9.726562 17.5625 9.59375 18.0625 9.375 C 19.539062 8.675781 20.046875 7.5625 19.578125 6.03125 C 19.316406 5.25 18.914062 4.535156 18.375 3.890625 C 17.75 3.085938 17.054688 2.34375 16.296875 1.65625 C 15.546875 0.976562 14.769531 0.328125 13.96875 -0.296875 C 13.519531 -0.628906 13.097656 -0.617188 12.703125 -0.265625 C 11.484375 0.648438 10.378906 1.671875 9.390625 2.796875 C 8.960938 3.304688 8.601562 3.867188 8.3125 4.484375 C 7.664062 5.984375 7.976562 7.253906 9.25 8.296875 C 9.863281 8.765625 10.535156 9.101562 11.265625 9.3125 C 12.441406 9.664062 13.648438 9.84375 14.890625 9.84375 Z M 15.625 -2.3125 C 15.675781 -2.101562 15.765625 -1.929688 15.890625 -1.796875 C 16.023438 -1.660156 16.160156 -1.550781 16.296875 -1.46875 C 16.390625 -1.394531 16.484375 -1.320312 16.578125 -1.25 C 16.953125 -0.925781 17.328125 -0.585938 17.703125 -0.234375 C 18.410156 0.378906 19.09375 0.988281 19.75 1.59375 C 20.707031 2.476562 21.484375 3.507812 22.078125 4.6875 C 22.660156 5.863281 22.8125 7.003906 22.53125 8.109375 C 22.25 9.210938 21.378906 10.09375 19.921875 10.75 C 19.316406 11.03125 18.671875 11.21875 17.984375 11.3125 C 16.671875 11.476562 15.347656 11.539062 14.015625 11.5 C 12.691406 11.46875 11.382812 11.28125 10.09375 10.9375 C 9.46875 10.757812 8.859375 10.53125 8.265625 10.25 C 7.679688 9.976562 7.15625 9.617188 6.6875 9.171875 C 5.007812 7.640625 4.660156 5.851562 5.640625 3.8125 C 6.023438 3.019531 6.523438 2.289062 7.140625 1.625 C 8.128906 0.59375 9.1875 -0.363281 10.3125 -1.25 C 10.875 -1.695312 11.148438 -2.019531 11.140625 -2.21875 C 11.128906 -2.425781 10.804688 -2.71875 10.171875 -3.09375 C 9.023438 -3.851562 7.863281 -4.613281 6.6875 -5.375 C 6.070312 -5.769531 5.457031 -6.171875 4.84375 -6.578125 C 4.476562 -6.835938 4.109375 -7.082031 3.734375 -7.3125 C 2.796875 -7.90625 1.863281 -8.523438 0.9375 -9.171875 C -0.09375 -9.910156 -1.054688 -10.710938 -1.953125 -11.578125 C -2.859375 -12.441406 -3.65625 -13.414062 -4.34375 -14.5 C -5.75 -16.769531 -6.269531 -19.085938 -5.90625 -21.453125 C -5.539062 -23.828125 -4.503906 -26.113281 -2.796875 -28.3125 C -1.097656 -30.507812 1.035156 -32.488281 3.609375 -34.25 C 6.191406 -36.007812 8.992188 -37.429688 12.015625 -38.515625 C 15.035156 -39.609375 18.039062 -40.238281 21.03125 -40.40625 C 24.03125 -40.570312 26.78125 -40.148438 29.28125 -39.140625 C 31.789062 -38.128906 33.859375 -36.394531 35.484375 -33.9375 C 35.773438 -33.488281 36.019531 -33.007812 36.21875 -32.5 C 36.414062 -32 36.515625 -31.46875 36.515625 -30.90625 C 36.515625 -30.34375 36.257812 -29.992188 35.75 -29.859375 C 35.394531 -29.753906 35.066406 -29.753906 34.765625 -29.859375 C 34.472656 -29.972656 34.253906 -30.144531 34.109375 -30.375 C 34.085938 -30.4375 34.066406 -30.519531 34.046875 -30.625 C 34.023438 -30.675781 34.015625 -30.722656 34.015625 -30.765625 C 32.929688 -33.742188 31.332031 -35.867188 29.21875 -37.140625 C 27.113281 -38.410156 24.726562 -39.003906 22.0625 -38.921875 C 19.394531 -38.835938 16.671875 -38.253906 13.890625 -37.171875 C 11.109375 -36.085938 8.492188 -34.707031 6.046875 -33.03125 C 3.609375 -31.363281 1.5625 -29.566406 -0.09375 -27.640625 C -1.75 -25.710938 -2.773438 -23.84375 -3.171875 -22.03125 C -3.578125 -19.769531 -3.191406 -17.679688 -2.015625 -15.765625 C -1.078125 -14.140625 0.117188 -12.753906 1.578125 -11.609375 C 2.703125 -10.722656 3.851562 -9.878906 5.03125 -9.078125 C 6.082031 -8.390625 7.125 -7.71875 8.15625 -7.0625 C 9.59375 -6.15625 11.003906 -5.234375 12.390625 -4.296875 C 12.785156 -4.003906 13.148438 -3.867188 13.484375 -3.890625 C 13.828125 -3.921875 14.1875 -4.066406 14.5625 -4.328125 C 16.414062 -5.441406 18.25 -6.46875 20.0625 -7.40625 C 21.875 -8.34375 22.878906 -8.601562 23.078125 -8.1875 C 23.273438 -7.769531 22.988281 -7.273438 22.21875 -6.703125 C 20.40625 -5.742188 18.664062 -4.664062 17 -3.46875 C 16.90625 -3.425781 16.816406 -3.367188 16.734375 -3.296875 C 16.273438 -3.054688 15.90625 -2.726562 15.625 -2.3125 Z M 15.625 -2.3125 "/></g></g><g transform="translate(31.358018, 40.451209)"><g><path d="M 22.421875 -8.15625 C 23.109375 -8.226562 23.554688 -8.085938 23.765625 -7.734375 C 23.984375 -7.378906 23.441406 -6.960938 22.140625 -6.484375 C 20.835938 -6.003906 19.546875 -5.554688 18.265625 -5.140625 C 16.984375 -4.734375 15.613281 -4.238281 14.15625 -3.65625 C 13.40625 -3.375 12.679688 -3.054688 11.984375 -2.703125 C 11.296875 -2.347656 10.65625 -1.898438 10.0625 -1.359375 C 9.382812 -0.734375 8.578125 -0.453125 7.640625 -0.515625 C 7.429688 -0.535156 7.226562 -0.585938 7.03125 -0.671875 C 6.84375 -0.753906 6.707031 -0.890625 6.625 -1.078125 C 6.53125 -1.304688 6.523438 -1.507812 6.609375 -1.6875 C 6.703125 -1.863281 6.835938 -2.007812 7.015625 -2.125 C 7.285156 -2.4375 7.597656 -2.695312 7.953125 -2.90625 C 8.867188 -3.445312 9.617188 -4.125 10.203125 -4.9375 C 10.796875 -5.757812 11.304688 -6.644531 11.734375 -7.59375 C 12.015625 -8.289062 11.957031 -8.863281 11.5625 -9.3125 C 11.175781 -9.757812 10.660156 -9.972656 10.015625 -9.953125 C 9.367188 -9.929688 8.800781 -9.582031 8.3125 -8.90625 C 7.425781 -7.4375 6.769531 -5.867188 6.34375 -4.203125 C 5.789062 -2.304688 5.351562 -0.382812 5.03125 1.5625 C 4.707031 3.507812 4.414062 5.46875 4.15625 7.4375 C 4.039062 8.238281 3.925781 9.039062 3.8125 9.84375 C 3.570312 11.4375 3.421875 13.035156 3.359375 14.640625 C 3.304688 16.253906 3.28125 17.867188 3.28125 19.484375 C 3.28125 19.597656 3.28125 19.703125 3.28125 19.796875 C 3.28125 20.578125 3.289062 21.351562 3.3125 22.125 C 3.3125 23.320312 3.296875 24.53125 3.265625 25.75 C 3.242188 26.96875 3.175781 28.191406 3.0625 29.421875 C 3.039062 29.554688 3.03125 29.679688 3.03125 29.796875 C 3.03125 29.941406 3.019531 30.082031 3 30.21875 C 2.894531 31.25 2.410156 31.765625 1.546875 31.765625 L 1.46875 31.765625 C 1.351562 31.765625 1.226562 31.753906 1.09375 31.734375 C 0.476562 31.660156 0.101562 31.332031 -0.03125 30.75 C -0.144531 30.28125 -0.210938 29.8125 -0.234375 29.34375 C -0.453125 25.875 -0.394531 22.398438 -0.0625 18.921875 C -0.0390625 18.785156 -0.0195312 18.632812 0 18.46875 C 0.132812 16.789062 0.257812 15.109375 0.375 13.421875 C 0.5 11.742188 0.539062 10.046875 0.5 8.328125 C 0.375 4.566406 0.265625 0.8125 0.171875 -2.9375 C 0.0976562 -5.425781 0.03125 -7.929688 -0.03125 -10.453125 C -0.0507812 -10.921875 -0.0859375 -11.375 -0.140625 -11.8125 C -0.179688 -12.164062 -0.210938 -12.519531 -0.234375 -12.875 C -0.265625 -13.550781 -0.0078125 -13.976562 0.53125 -14.15625 C 1.351562 -14.332031 1.925781 -14.109375 2.25 -13.484375 C 2.53125 -12.773438 2.679688 -12.03125 2.703125 -11.25 C 2.734375 -10.851562 2.757812 -10.453125 2.78125 -10.046875 C 2.945312 -8.441406 3.019531 -6.816406 3 -5.171875 C 3 -4.992188 3.007812 -4.789062 3.03125 -4.5625 C 3.050781 -4.445312 3.117188 -4.398438 3.234375 -4.421875 C 3.347656 -4.453125 3.453125 -4.5625 3.546875 -4.75 C 3.648438 -4.9375 3.722656 -5.117188 3.765625 -5.296875 C 3.796875 -5.390625 3.820312 -5.488281 3.84375 -5.59375 C 4.289062 -6.957031 4.878906 -8.242188 5.609375 -9.453125 C 6.285156 -10.671875 7.300781 -11.398438 8.65625 -11.640625 C 10.257812 -11.847656 11.785156 -11.601562 13.234375 -10.90625 C 14.597656 -10.25 15.078125 -9.179688 14.671875 -7.703125 C 14.554688 -7.253906 14.441406 -6.898438 14.328125 -6.640625 C 14.242188 -6.390625 14.203125 -6.207031 14.203125 -6.09375 C 14.203125 -5.988281 14.300781 -5.941406 14.5 -5.953125 C 14.695312 -5.960938 15.050781 -6.035156 15.5625 -6.171875 C 16.414062 -6.410156 17.265625 -6.6875 18.109375 -7 C 18.804688 -7.25 19.507812 -7.476562 20.21875 -7.6875 C 20.9375 -7.90625 21.671875 -8.0625 22.421875 -8.15625 Z M 22.421875 -8.15625 "/></g></g><g transform="translate(53.399038, 40.451209)"><g><path d="M 14.65625 -8.046875 C 14.78125 -8.023438 14.863281 -7.988281 14.90625 -7.9375 C 14.945312 -7.894531 14.992188 -7.804688 15.046875 -7.671875 C 15.085938 -7.523438 15.035156 -7.351562 14.890625 -7.15625 C 14.753906 -6.96875 14.628906 -6.816406 14.515625 -6.703125 C 13.640625 -5.878906 12.613281 -5.390625 11.4375 -5.234375 C 10.769531 -5.140625 10.097656 -5.113281 9.421875 -5.15625 C 8.753906 -5.207031 8.09375 -5.375 7.4375 -5.65625 C 6.96875 -5.882812 6.53125 -5.8125 6.125 -5.4375 C 5.28125 -4.675781 4.398438 -3.941406 3.484375 -3.234375 C 3.015625 -2.878906 2.519531 -2.582031 2 -2.34375 C 1.488281 -2.113281 0.925781 -1.984375 0.3125 -1.953125 C -1.46875 -1.984375 -2.171875 -2.851562 -1.796875 -4.5625 C -1.773438 -4.632812 -1.75 -4.691406 -1.71875 -4.734375 C -1.195312 -6.117188 -0.519531 -7.367188 0.3125 -8.484375 C 1.15625 -9.609375 2.222656 -10.539062 3.515625 -11.28125 C 4.367188 -11.78125 5.289062 -11.972656 6.28125 -11.859375 C 6.53125 -11.804688 6.773438 -11.710938 7.015625 -11.578125 C 7.296875 -11.429688 7.410156 -11.207031 7.359375 -10.90625 C 7.335938 -10.800781 7.289062 -10.710938 7.21875 -10.640625 C 7.15625 -10.578125 7.085938 -10.515625 7.015625 -10.453125 C 6.972656 -10.398438 6.914062 -10.363281 6.84375 -10.34375 C 6.769531 -10.320312 6.695312 -10.3125 6.625 -10.3125 C 5.914062 -10.289062 5.304688 -10.082031 4.796875 -9.6875 C 4.296875 -9.300781 3.835938 -8.863281 3.421875 -8.375 C 2.953125 -7.851562 2.515625 -7.273438 2.109375 -6.640625 C 1.710938 -6.015625 1.390625 -5.265625 1.140625 -4.390625 C 2.078125 -4.929688 2.8125 -5.46875 3.34375 -6 C 3.457031 -6.113281 3.578125 -6.222656 3.703125 -6.328125 C 3.796875 -6.421875 3.890625 -6.503906 3.984375 -6.578125 C 4.453125 -7.015625 4.941406 -7.398438 5.453125 -7.734375 C 6.046875 -8.066406 6.628906 -8.234375 7.203125 -8.234375 C 7.773438 -8.234375 8.335938 -7.992188 8.890625 -7.515625 C 9.628906 -6.859375 10.347656 -6.601562 11.046875 -6.75 C 11.753906 -6.894531 12.414062 -7.140625 13.03125 -7.484375 C 13.644531 -7.859375 14.1875 -8.046875 14.65625 -8.046875 Z M 14.65625 -8.046875 "/></g></g><g transform="translate(66.956586, 40.451209)"><g><path d="M 11.859375 -7.34375 C 11.910156 -7.363281 11.945312 -7.382812 11.96875 -7.40625 C 12.226562 -7.5625 12.515625 -7.71875 12.828125 -7.875 C 13.148438 -8.03125 13.4375 -8.101562 13.6875 -8.09375 C 13.945312 -8.082031 14.101562 -7.914062 14.15625 -7.59375 C 14.132812 -7.09375 13.609375 -6.566406 12.578125 -6.015625 C 11.546875 -5.472656 10.273438 -4.953125 8.765625 -4.453125 C 7.265625 -3.960938 5.816406 -3.566406 4.421875 -3.265625 C 3.023438 -2.972656 1.972656 -2.84375 1.265625 -2.875 C 0.460938 -2.96875 -0.125 -3.257812 -0.5 -3.75 C -0.875 -4.25 -1.007812 -4.910156 -0.90625 -5.734375 C -0.769531 -6.617188 -0.367188 -7.519531 0.296875 -8.4375 C 0.960938 -9.351562 1.84375 -10.070312 2.9375 -10.59375 C 4.03125 -11.125 5.242188 -11.273438 6.578125 -11.046875 C 6.796875 -11.023438 6.972656 -10.941406 7.109375 -10.796875 C 7.179688 -10.742188 7.242188 -10.671875 7.296875 -10.578125 C 7.359375 -10.492188 7.378906 -10.40625 7.359375 -10.3125 C 7.335938 -10.019531 7.160156 -9.832031 6.828125 -9.75 C 6.503906 -9.675781 6.1875 -9.640625 5.875 -9.640625 C 5.8125 -9.640625 5.742188 -9.628906 5.671875 -9.609375 C 4.828125 -9.484375 4 -8.988281 3.1875 -8.125 C 2.375 -7.269531 1.921875 -6.34375 1.828125 -5.34375 C 1.828125 -4.914062 2.242188 -4.710938 3.078125 -4.734375 C 3.921875 -4.753906 4.929688 -4.925781 6.109375 -5.25 C 7.296875 -5.570312 8.421875 -5.921875 9.484375 -6.296875 C 10.554688 -6.679688 11.347656 -7.03125 11.859375 -7.34375 Z M 11.859375 -7.34375 "/></g></g><g transform="translate(79.633774, 40.451209)"><g><path d="M 3.40625 -6.265625 C 3.382812 -6.265625 3.363281 -6.265625 3.34375 -6.265625 C 3.34375 -6.265625 3.351562 -6.265625 3.375 -6.265625 C 3.375 -6.265625 3.382812 -6.265625 3.40625 -6.265625 Z M 14.609375 -7.875 C 14.734375 -7.945312 14.921875 -8.035156 15.171875 -8.140625 C 15.429688 -8.242188 15.675781 -8.300781 15.90625 -8.3125 C 16.144531 -8.332031 16.3125 -8.242188 16.40625 -8.046875 C 16.476562 -7.910156 16.492188 -7.773438 16.453125 -7.640625 C 16.421875 -7.515625 16.359375 -7.40625 16.265625 -7.3125 C 15.671875 -6.675781 14.757812 -6.03125 13.53125 -5.375 C 12.300781 -4.71875 11.023438 -4.132812 9.703125 -3.625 C 8.378906 -3.125 7.28125 -2.800781 6.40625 -2.65625 C 5.394531 -2.476562 4.375 -2.4375 3.34375 -2.53125 C 2.070312 -2.6875 1.125 -3.207031 0.5 -4.09375 C -0.113281 -4.988281 -0.359375 -5.992188 -0.234375 -7.109375 C -0.0546875 -8.347656 0.503906 -9.332031 1.453125 -10.0625 C 2.398438 -10.789062 3.488281 -11.0625 4.71875 -10.875 C 5.46875 -10.769531 6.144531 -10.492188 6.75 -10.046875 C 7.414062 -9.515625 7.710938 -8.898438 7.640625 -8.203125 C 7.566406 -7.515625 7.15625 -6.984375 6.40625 -6.609375 C 6.007812 -6.421875 5.570312 -6.300781 5.09375 -6.25 C 4.613281 -6.195312 4.050781 -6.203125 3.40625 -6.265625 C 3.40625 -6.265625 3.390625 -6.265625 3.359375 -6.265625 C 3.328125 -6.265625 3.273438 -6.265625 3.203125 -6.265625 C 3.140625 -6.265625 3.070312 -6.265625 3 -6.265625 C 2.800781 -6.265625 2.671875 -6.207031 2.609375 -6.09375 C 2.554688 -5.988281 2.554688 -5.859375 2.609375 -5.703125 C 2.960938 -4.828125 3.648438 -4.363281 4.671875 -4.3125 C 5.703125 -4.257812 6.867188 -4.453125 8.171875 -4.890625 C 9.484375 -5.328125 10.726562 -5.832031 11.90625 -6.40625 C 13.082031 -6.988281 13.984375 -7.476562 14.609375 -7.875 Z M 3.375 -8.90625 C 3.21875 -8.78125 3.109375 -8.640625 3.046875 -8.484375 C 2.992188 -8.335938 2.957031 -8.207031 2.9375 -8.09375 C 2.925781 -7.988281 2.945312 -7.925781 3 -7.90625 C 3.039062 -7.882812 3.171875 -7.851562 3.390625 -7.8125 C 3.617188 -7.78125 3.867188 -7.773438 4.140625 -7.796875 C 4.410156 -7.828125 4.632812 -7.882812 4.8125 -7.96875 C 4.988281 -8.0625 5.050781 -8.226562 5 -8.46875 C 4.875 -8.800781 4.644531 -9.007812 4.3125 -9.09375 C 3.976562 -9.175781 3.664062 -9.113281 3.375 -8.90625 Z M 3.375 -8.90625 "/></g></g><g transform="translate(94.423827, 40.451209)"><g><path d="M 14.125 -8.015625 C 14.519531 -7.941406 14.738281 -7.722656 14.78125 -7.359375 C 14.832031 -6.992188 14.648438 -6.628906 14.234375 -6.265625 C 13.828125 -5.910156 13.4375 -5.578125 13.0625 -5.265625 C 12.125 -4.492188 11.113281 -3.671875 10.03125 -2.796875 C 9.1875 -2.117188 8.414062 -1.367188 7.71875 -0.546875 C 7.195312 0.00390625 6.804688 0.632812 6.546875 1.34375 C 6.265625 2.257812 5.796875 3.082031 5.140625 3.8125 C 4.765625 4.238281 4.335938 4.5 3.859375 4.59375 C 3.378906 4.6875 2.878906 4.660156 2.359375 4.515625 C 2.097656 4.453125 1.898438 4.316406 1.765625 4.109375 C 1.640625 3.910156 1.617188 3.679688 1.703125 3.421875 C 1.785156 3.023438 1.929688 2.65625 2.140625 2.3125 C 2.453125 1.851562 2.785156 1.414062 3.140625 1 C 3.160156 0.945312 3.191406 0.898438 3.234375 0.859375 C 4.460938 -0.660156 4.535156 -2.222656 3.453125 -3.828125 C 3.191406 -4.179688 2.898438 -4.519531 2.578125 -4.84375 C 2.484375 -4.96875 2.375 -5.085938 2.25 -5.203125 C 2.0625 -5.429688 1.863281 -5.65625 1.65625 -5.875 C 1.257812 -6.289062 0.875 -6.734375 0.5 -7.203125 C -0.5625 -8.679688 -0.492188 -10.097656 0.703125 -11.453125 C 1.734375 -12.679688 3.023438 -13.53125 4.578125 -14 C 5.535156 -14.28125 6.460938 -14.195312 7.359375 -13.75 C 8.222656 -13.28125 8.625 -12.554688 8.5625 -11.578125 C 8.46875 -10.910156 8.140625 -10.519531 7.578125 -10.40625 C 6.847656 -10.269531 6.328125 -10.492188 6.015625 -11.078125 C 5.921875 -11.304688 5.851562 -11.507812 5.8125 -11.6875 C 5.769531 -11.863281 5.707031 -12 5.625 -12.09375 C 5.550781 -12.195312 5.4375 -12.226562 5.28125 -12.1875 C 5.125 -12.15625 4.867188 -12.03125 4.515625 -11.8125 C 3.972656 -11.488281 3.503906 -11.066406 3.109375 -10.546875 C 2.460938 -9.773438 2.425781 -8.953125 3 -8.078125 C 3.1875 -7.804688 3.398438 -7.550781 3.640625 -7.3125 C 3.890625 -7.019531 4.132812 -6.738281 4.375 -6.46875 C 4.84375 -6 5.285156 -5.519531 5.703125 -5.03125 C 6.128906 -4.539062 6.492188 -4.007812 6.796875 -3.4375 C 7.035156 -3.476562 7.445312 -3.695312 8.03125 -4.09375 C 8.625 -4.5 9.265625 -4.96875 9.953125 -5.5 C 10.640625 -6.03125 11.265625 -6.507812 11.828125 -6.9375 C 12.296875 -7.300781 12.628906 -7.554688 12.828125 -7.703125 C 12.984375 -7.816406 13.175781 -7.898438 13.40625 -7.953125 C 13.644531 -8.015625 13.882812 -8.035156 14.125 -8.015625 Z M 14.125 -8.015625 "/></g></g></g></svg>